<svg xmlns="http://www.w3.org/2000/svg" xmlns:xlink="http://www.w3.org/1999/xlink" id="pt-header-logo" viewBox="0 0 417.02 405.32"><defs><style>.cls-1{opacity:0.25;}.cls-2{fill:#fff;}.cls-3,.cls-4,.cls-5{fill:none;}.cls-3,.cls-4{stroke:#fff;}.cls-3{stroke-linecap:round;stroke-linejoin:round;}.cls-4{stroke-miterlimit:10;}.cls-6{fill:url(#linear-gradient);}</style><linearGradient id="linear-gradient" x1="257.57" y1="715.79" x2="265.68" y2="723.81" gradientTransform="matrix(1, 0, 0, -1, 0, 771)" gradientUnits="userSpaceOnUse"><stop offset="0" stop-color="#00a485"/><stop offset="1" stop-color="#00a3c5"/></linearGradient></defs><g id="Layer_2"><g><g id="design" class="cls-1"><rect class="cls-2" x="305.52" y="16.3" width="8.2" height="8.2"/><rect class="cls-2" x="233.32" y="104.5" width="8.2" height="8.2"/><rect class="cls-2" x="217.02" y="63.1" width="8.2" height="8.2"/><rect class="cls-2" x="200.62" y="80.3" width="8.2" height="8.2"/><rect class="cls-2" x="121.32" y="47.1" width="8.2" height="8.2"/><rect class="cls-2" x="161.02" y="184.3" width="8.2" height="8.2"/><polygon class="cls-3" points="309.62 20.4 261.62 51.2 237.42 108.6 221.12 67.2 261.62 51.2 125.42 51.2 204.72 84.4 221.12 67.2 165.12 188.4 1.52 0.5 309.62 20.4"/><polyline class="cls-3" points="309.62 20.4 125.42 51.2 165.12 188.4 237.42 108.6 204.72 84.4 261.62 51.2 1.52 0.5"/><polyline class="cls-3" points="416.52 0.5 309.62 20.4 241.52 0.5"/><polyline class="cls-3" points="1.52 104.5 165.12 188.4 1.52 88.5 125.42 51.2"/><polyline class="cls-4" points="165.12 188.4 1.52 402.5 125.42 51.2"/><rect class="cls-2" x="69.42" y="252.4" width="8.2" height="8.2"/><polyline class="cls-4" points="1.52 402.5 73.52 256.5 1.52 104.5"/><polyline class="cls-4" points="165.12 188.4 73.52 256.5 125.42 51.2"/><polyline class="cls-4" points="1.52 0.5 73.52 256.5 204.72 84.4"/></g><g id="logo"><rect id="_64x64" class="cls-5" x="241.52" y="24.5" width="64" height="64"/><path id="P" class="cls-2" d="M279.52,41.7h-13.9v5.4h13a4.11,4.11,0,1,1,0,8.2h-13v16h6.3V60.7h7.6c6.4,0,10-4.3,10-9.5S286,41.7,279.52,41.7Z"/><rect id="square" class="cls-6" x="257.52" y="47.1" width="8.2" height="8.2"/></g></g></g></svg>